<svg
        width="100"
        height="100"
        viewBox="0 0 100 100"
        fill="none"
        xmlns="http://www.w3.org/2000/svg"
>
    <circle cx="50" cy="50" r="50" fill="#D9D9D9"/>
    <g clip-path="url(#default-profile)">
        <path
                d="M50 52.9168C56.9883 52.9168 63.3438 54.941 68.0192 57.7935C70.3525 59.2168 72.3475 60.8968 73.7883 62.7227C75.2058 64.5164 76.25 66.6631 76.25 68.9585C76.25 71.4231 75.0513 73.3656 73.3246 74.751C71.6912 76.0635 69.5358 76.9327 67.2463 77.5393C62.6437 78.7556 56.5013 79.1668 50 79.1668C43.4987 79.1668 37.3562 78.7585 32.7537 77.5393C30.4642 76.9327 28.3087 76.0635 26.6754 74.751C24.9458 73.3627 23.75 71.4231 23.75 68.9585C23.75 66.6631 24.7942 64.5164 26.2117 62.7197C27.6525 60.8968 29.6446 59.2197 31.9808 57.7906C36.6563 54.9439 43.0146 52.9168 50 52.9168ZM50 20.8335C53.8677 20.8335 57.5771 22.37 60.312 25.1049C63.0469 27.8398 64.5833 31.5491 64.5833 35.4168C64.5833 39.2846 63.0469 42.9939 60.312 45.7288C57.5771 48.4637 53.8677 50.0002 50 50.0002C46.1323 50.0002 42.4229 48.4637 39.688 45.7288C36.9531 42.9939 35.4167 39.2846 35.4167 35.4168C35.4167 31.5491 36.9531 27.8398 39.688 25.1049C42.4229 22.37 46.1323 20.8335 50 20.8335Z"
                fill="white"
        />
    </g>
    <defs>
        <clipPath id="clip0_175_1803">
            <rect width="70" height="70" fill="none" transform="translate(15 15)"/>
        </clipPath>
    </defs>
</svg>
