<svg width="50" height="50" viewBox="0 0 50 50" fill="none" xmlns="http://www.w3.org/2000/svg">
<path d="M41.7611 17.7298L25.179 9.07622C24.8892 8.92494 24.5436 8.92494 24.2537 9.07622L7.67163 17.7298M41.7611 17.7298V34.9137C41.7611 35.2862 41.5541 35.6278 41.2238 35.8002L24.7164 44.4148M41.7611 17.7298L24.7164 26.6248M24.7164 44.4148L8.20898 35.8002C7.87871 35.6278 7.67163 35.2862 7.67163 34.9137V17.7298M24.7164 44.4148L24.7164 26.6248M7.67163 17.7298L24.7164 26.6248" stroke="#196CE9" stroke-width="2"/>
<path d="M24.8258 1.12798L39.7091 8.895L24.8258 16.662L9.94246 8.895L24.8258 1.12798Z" stroke="#196CE9" stroke-width="2"/>
<path d="M49.0001 24.9648L49.0001 40.4989L33.9553 48.3502L34.418 49.2367L33.9553 48.3502L33.9553 32.8161L49.0001 24.9648Z" stroke="#196CE9" stroke-width="2"/>
<path d="M16.0448 48.3502L1 40.4989L1 24.9648L1 24.9648L16.0448 32.8161L16.0448 48.3502Z" stroke="#196CE9" stroke-width="2"/>
</svg>
